<svg xmlns="http://www.w3.org/2000/svg" viewBox="0 0 512 512">
  <defs>
    <linearGradient id="bg" x1="0%" y1="0%" x2="100%" y2="100%">
      <stop offset="0%" style="stop-color:#6366f1"/>
      <stop offset="100%" style="stop-color:#4f46e5"/>
    </linearGradient>
  </defs>
  <rect width="512" height="512" rx="96" fill="url(#bg)"/>
  <g fill="white">
    <!-- Car silhouette -->
    <path d="M128 320c0-17.7 14.3-32 32-32h16l24-48c6.6-13.3 20.2-21.6 35.2-21.6h41.6c15 0 28.6 8.3 35.2 21.6l24 48h16c17.7 0 32 14.3 32 32v48c0 8.8-7.2 16-16 16h-32c-8.8 0-16-7.2-16-16v-16H192v16c0 8.8-7.2 16-16 16h-32c-8.8 0-16-7.2-16-16v-48z"/>
    <circle cx="176" cy="336" r="24"/>
    <circle cx="336" cy="336" r="24"/>
    <!-- Timer indicator -->
    <circle cx="256" cy="160" r="48" fill="none" stroke="white" stroke-width="8"/>
    <path d="M256 128v32l20 12" stroke="white" stroke-width="8" stroke-linecap="round" fill="none"/>
  </g>
</svg>
